<?xml version="1.0" standalone="no"?>
<!DOCTYPE svg PUBLIC "-//W3C//DTD SVG 20010904//EN"
 "http://www.w3.org/TR/2001/REC-SVG-20010904/DTD/svg10.dtd">
<svg version="1.0" xmlns="http://www.w3.org/2000/svg"
 width="1248.000000pt" height="1248.000000pt" viewBox="0 0 1248.000000 1248.000000"
 preserveAspectRatio="xMidYMid meet">
<metadata>
Created by potrace 1.14, written by Peter Selinger 2001-2017
</metadata>
<g transform="translate(0.000000,1248.000000) scale(0.100000,-0.100000)"
fill="#000000" stroke="none">
<path d="M0 6240 l0 -6240 6240 0 6240 0 0 6240 0 6240 -6240 0 -6240 0 0
-6240z m6790 5905 c189 -19 470 -59 605 -86 1293 -262 2437 -922 3302 -1904
301 -341 541 -685 772 -1105 328 -598 562 -1317 655 -2012 43 -317 51 -446 51
-808 0 -362 -8 -491 -51 -808 -132 -986 -525 -1946 -1125 -2747 -477 -636
-1084 -1177 -1772 -1579 -1171 -684 -2511 -936 -3902 -735 -689 100 -1442 367
-2072 735 -961 562 -1724 1355 -2263 2354 -258 478 -476 1094 -580 1640 -79
417 -103 675 -104 1125 -1 379 6 498 50 823 124 925 476 1826 1016 2597 593
848 1426 1547 2358 1980 676 314 1402 498 2146 545 195 12 729 3 914 -15z"/>
<path d="M6589 11090 c-37 -10 -82 -26 -100 -36 -67 -34 -226 -142 -289 -195
-36 -31 -99 -72 -140 -92 -99 -49 -201 -105 -220 -122 -45 -40 -206 -92 -370
-118 -289 -47 -268 -47 -272 -5 -2 24 -12 39 -38 56 -33 23 -41 24 -150 19
-63 -3 -138 -11 -165 -17 -78 -18 -256 -69 -297 -85 -21 -8 -57 -22 -80 -31
-70 -27 -79 -31 -163 -70 -125 -58 -413 -241 -580 -367 -175 -134 -298 -285
-329 -406 -10 -41 -16 -105 -16 -185 l0 -123 -50 -66 c-61 -81 -80 -114 -110
-197 -13 -36 -27 -70 -31 -75 -4 -6 -15 -68 -24 -137 -16 -124 -16 -128 5
-225 43 -192 49 -219 68 -286 l20 -68 -23 -42 c-58 -111 -115 -337 -115 -461
0 -90 28 -219 66 -309 32 -74 35 -88 30 -147 -3 -36 -8 -151 -12 -256 -5 -152
-3 -212 10 -293 9 -56 16 -158 16 -228 0 -69 6 -169 14 -222 27 -178 27 -163
-5 -191 -24 -20 -32 -37 -39 -85 -17 -112 -29 -281 -22 -307 4 -15 38 -59 75
-99 l69 -71 -7 -182 c-4 -99 -9 -189 -11 -198 -10 -35 -32 -19 -39 28 -4 26
-13 61 -20 78 -7 17 -21 51 -30 76 -69 178 -185 328 -238 307 -32 -12 -1 -68
83 -151 45 -43 92 -98 105 -121 27 -46 60 -137 71 -200 3 -22 10 -47 15 -56
21 -41 55 -312 68 -544 5 -88 12 -198 16 -245 7 -105 -1 -119 -77 -130 -53 -7
-53 -8 -13 -11 22 -1 60 -3 85 -3 41 -1 46 -4 62 -36 10 -19 18 -54 18 -76 0
-23 7 -61 15 -84 8 -23 15 -59 15 -79 0 -20 7 -54 15 -76 8 -22 14 -59 15 -82
0 -23 4 -44 9 -48 5 -3 13 -30 16 -60 4 -31 11 -58 16 -61 5 -3 9 -16 9 -29 0
-13 7 -46 15 -72 8 -26 22 -73 31 -103 14 -49 26 -83 54 -155 10 -24 137 -282
154 -310 49 -84 193 -284 261 -364 94 -111 224 -250 371 -396 213 -212 310
-301 447 -409 29 -22 54 -44 55 -48 2 -5 8 -8 13 -8 5 0 36 -20 69 -44 118
-87 397 -208 570 -247 319 -72 540 -72 874 0 85 19 223 67 316 110 84 39 360
212 511 321 42 30 87 62 99 70 12 8 28 20 34 25 6 6 58 46 116 90 58 43 107
81 110 84 3 3 41 35 85 71 236 191 410 371 548 565 31 44 60 85 64 91 14 19
45 78 90 169 24 50 48 98 53 107 6 10 10 23 10 29 0 6 6 25 14 42 23 55 61
160 76 212 5 17 17 55 26 85 9 30 21 76 28 102 6 25 14 50 19 54 4 4 7 15 7
25 0 22 31 121 42 134 4 5 50 9 101 8 79 -1 84 0 33 6 -44 5 -63 12 -77 30
-23 28 -23 32 -4 101 8 30 29 120 45 200 17 80 35 149 40 154 6 6 10 21 10 35
0 15 7 35 15 45 8 11 15 32 15 46 0 14 5 31 10 36 6 6 15 33 20 60 5 27 14 69
21 94 67 258 123 355 254 443 33 22 74 51 90 65 36 29 49 76 28 97 -12 13 -18
13 -46 -1 -88 -45 -171 -144 -274 -327 -12 -21 -13 -21 -12 8 0 48 24 168 39
195 17 32 73 85 121 115 71 46 79 65 86 237 7 187 3 218 -36 241 -27 16 -29
21 -24 55 3 20 23 91 44 157 22 66 39 127 39 136 0 30 34 115 70 174 71 117
105 290 95 491 -3 77 -7 222 -9 324 -2 178 -2 187 21 230 30 57 62 147 78 225
7 33 21 85 29 115 27 91 53 191 67 265 20 101 18 340 -3 445 -9 47 -22 143
-28 213 -22 259 -99 466 -246 659 -75 100 -154 176 -240 233 -32 21 -85 63
-117 92 -32 29 -62 53 -68 53 -21 0 -7 31 19 42 145 59 207 101 264 178 67 90
93 183 76 278 -14 85 -45 122 -101 122 -34 0 -58 -12 -154 -77 -184 -125 -161
-116 -226 -94 -98 32 -166 82 -338 247 -224 216 -359 306 -570 378 -120 41
-204 56 -307 56 -95 0 -98 1 -153 38 -31 20 -109 82 -174 137 -131 112 -187
152 -272 194 -127 63 -222 74 -344 41z m-1632 -3030 c71 -10 182 -27 248 -36
121 -16 234 -40 335 -68 30 -9 120 -25 200 -36 80 -11 193 -27 252 -35 59 -8
173 -15 255 -15 81 0 198 -6 258 -14 77 -10 226 -14 500 -14 485 0 560 -7 760
-72 82 -26 206 -64 275 -83 201 -56 451 -163 508 -217 68 -64 156 -259 192
-423 19 -86 40 -276 50 -440 5 -89 14 -238 20 -332 5 -93 14 -187 20 -208 6
-21 10 -92 9 -157 -2 -109 -4 -120 -21 -120 -10 0 -18 5 -18 10 0 6 -16 10
-36 10 -20 0 -63 6 -97 14 -119 28 -163 37 -242 47 -296 37 -898 60 -1088 41
-271 -27 -311 -32 -587 -76 -52 -8 -131 -21 -175 -30 -93 -18 -289 -21 -419
-6 -175 20 -241 31 -278 45 -71 28 -113 42 -173 60 -33 10 -78 23 -100 30
-176 55 -289 86 -395 109 -244 52 -328 68 -400 77 -144 16 -321 38 -352 43
-18 3 -130 11 -248 16 -208 10 -467 2 -623 -18 -32 -5 -60 -5 -62 -1 -5 7 4
54 30 159 9 36 19 83 23 105 5 23 12 46 16 53 4 7 11 33 16 60 5 26 16 74 24
107 39 157 57 242 86 400 5 28 14 66 20 85 6 19 18 58 26 85 9 28 19 59 24 70
4 11 23 61 40 110 88 243 213 408 406 537 82 54 115 68 247 103 185 48 290 54
474 25z m-387 -2196 l55 -18 -75 -8 c-41 -4 -100 -17 -130 -28 -30 -12 -64
-24 -75 -28 -26 -7 -141 -68 -185 -98 -19 -13 -71 -35 -114 -49 -44 -14 -111
-47 -150 -72 -87 -58 -188 -153 -210 -195 l-16 -33 0 69 c0 39 5 97 11 130 39
219 83 289 210 337 51 18 72 19 339 15 237 -4 294 -8 340 -22z m517 -79 c19
-8 45 -15 56 -15 24 0 118 -27 164 -46 17 -8 40 -14 52 -14 12 0 21 -4 21 -9
0 -5 14 -12 30 -16 17 -4 30 -11 30 -16 0 -5 6 -9 14 -9 7 0 29 -13 47 -30 19
-16 37 -30 42 -30 4 0 7 -6 7 -12 0 -10 -24 -13 -88 -12 -121 2 -117 1 -149
32 -72 71 -235 172 -278 172 -8 0 -17 5 -20 10 -9 15 31 12 72 -5z m-123 -34
c171 -61 316 -171 417 -318 47 -68 129 -254 129 -293 0 -11 7 -20 15 -20 12 0
15 16 15 81 0 54 3 78 11 74 15 -10 67 14 73 33 3 10 3 4 1 -13 -3 -16 -7 -52
-11 -80 -5 -49 -28 -141 -44 -180 -4 -11 -22 -63 -40 -115 -17 -52 -56 -144
-87 -205 -205 -410 -430 -545 -846 -506 -293 27 -502 86 -657 186 -68 44 -152
135 -184 201 -28 58 -33 70 -56 164 -7 25 -16 59 -21 76 -5 17 -8 125 -7 240
1 187 2 197 8 99 9 -137 18 -191 34 -205 19 -15 29 0 75 125 47 123 89 200
138 247 l33 32 1 -40 c3 -105 36 -123 67 -37 34 92 91 181 167 259 103 105
189 159 325 201 68 21 89 22 230 19 124 -3 167 -8 214 -25z m3161 -141 c99
-11 209 -25 245 -33 123 -25 204 -80 253 -171 21 -39 22 -53 22 -266 0 -143
-4 -240 -12 -265 -6 -22 -16 -83 -21 -135 -23 -212 -84 -389 -175 -502 -62
-78 -187 -157 -307 -194 -171 -54 -502 -71 -707 -35 -179 31 -285 81 -384 180
-103 105 -176 236 -233 421 -15 47 -31 101 -38 119 -38 118 -49 237 -25 278 6
11 31 57 54 102 55 107 101 174 165 242 254 270 642 326 954 138 161 -98 307
-310 346 -504 18 -90 55 -63 57 42 1 32 6 45 22 53 18 10 30 1 108 -79 49 -50
93 -91 99 -91 5 0 17 11 26 25 62 95 -86 297 -284 387 -30 14 -80 49 -110 78
-102 97 -296 210 -361 210 -10 0 -21 5 -24 10 -10 16 131 12 330 -10z m-807 3
c-10 -2 -28 -2 -40 0 -13 2 -5 4 17 4 22 1 32 -1 23 -4z m-108 -28 c-19 -7
-51 -14 -70 -15 -19 0 -46 -7 -60 -15 -14 -8 -39 -14 -56 -15 -26 0 -34 -6
-44 -31 -10 -22 -17 -28 -29 -23 -9 4 -37 7 -63 6 -28 -2 -48 2 -48 8 0 5 7
10 15 10 9 0 18 7 21 15 4 8 16 15 28 15 12 0 31 7 42 15 10 8 31 15 45 15 15
0 42 7 60 15 21 9 65 14 114 14 78 -1 79 -1 45 -14z m-922 -459 c40 -21 112
-93 112 -112 0 -7 6 -28 14 -46 8 -18 22 -62 31 -98 10 -36 21 -76 25 -90 4
-14 22 -72 40 -130 17 -58 38 -122 46 -142 8 -21 20 -55 28 -75 112 -305 231
-523 346 -640 65 -67 173 -134 275 -171 45 -17 151 -41 245 -57 151 -25 188
-28 445 -28 260 -1 286 0 359 21 85 24 193 78 239 121 49 44 99 156 112 248 3
26 15 59 25 73 l20 25 0 -25 c0 -14 -11 -84 -25 -155 -55 -288 -177 -613 -313
-832 -213 -344 -611 -738 -1129 -1117 -59 -44 -133 -98 -163 -120 -156 -116
-365 -228 -485 -259 -172 -45 -428 -72 -603 -64 -396 20 -647 93 -897 260
-191 128 -598 526 -822 803 -376 464 -544 736 -636 1035 -65 212 -76 265 -148
774 -17 121 -33 237 -36 258 -5 30 -2 37 11 37 11 0 16 -9 16 -30 0 -18 6 -33
15 -36 8 -4 15 -17 15 -30 0 -14 7 -27 15 -30 8 -4 15 -11 15 -16 0 -10 46
-72 82 -112 43 -47 70 -98 88 -165 29 -105 51 -142 122 -205 159 -144 383
-202 813 -213 201 -4 245 -3 353 15 204 34 317 99 463 265 158 181 299 424
446 767 58 137 109 233 137 259 51 48 96 62 186 58 56 -2 96 -9 118 -21z
m-2931 -293 c-3 -10 -5 -4 -5 12 0 17 2 24 5 18 2 -7 2 -21 0 -30z m32 -160
l-1 -48 -10 34 c-5 18 -7 40 -4 47 10 27 16 14 15 -33z m538 -589 c-3 -3 -12
-4 -19 -1 -8 3 -5 6 6 6 11 1 17 -2 13 -5z m98 -35 c5 -5 23 -9 41 -9 17 0 48
-7 67 -15 20 -8 52 -15 71 -15 19 0 47 -5 63 -11 15 -6 64 -14 108 -19 44 -5
127 -14 185 -20 126 -14 426 -8 443 9 6 6 31 11 57 11 l45 0 -60 -25 c-124
-52 -300 -66 -545 -45 -138 12 -306 43 -385 70 -70 24 -165 71 -165 82 0 9 62
-1 75 -13z m4345 -240 c-46 -40 -159 -93 -240 -114 -89 -23 -255 -34 -375 -24
-323 24 -435 42 -525 83 l-55 25 57 0 c31 1 67 -3 80 -9 50 -21 377 -39 528
-29 215 15 395 40 415 60 5 5 21 9 35 9 14 0 35 7 46 15 10 8 30 14 44 14 24
0 24 0 -10 -30z m-1207 -6 c-7 -2 -21 -2 -30 0 -10 3 -4 5 12 5 17 0 24 -2 18
-5z"/>
<path d="M4640 6624 c-255 -19 -540 -120 -657 -233 -28 -26 -30 -62 -5 -84 28
-26 60 -21 149 23 180 88 336 122 553 121 212 -1 411 -45 600 -133 93 -43 118
-49 160 -38 27 7 42 20 56 45 18 34 18 35 -2 62 -37 52 -273 153 -459 197
-120 28 -305 47 -395 40z"/>
<path d="M7715 6433 c-170 -9 -377 -58 -597 -141 -147 -55 -187 -83 -188 -129
0 -24 40 -60 78 -70 17 -4 64 10 151 44 337 134 613 174 851 123 134 -29 220
-73 375 -191 49 -37 92 -37 114 2 14 25 13 29 -23 78 -69 94 -204 186 -351
239 -92 33 -267 52 -410 45z"/>
<path d="M4690 5704 c-129 -34 -248 -122 -298 -220 -74 -146 -71 -334 8 -481
24 -43 48 -57 150 -89 30 -9 62 -20 70 -24 9 -4 35 -11 58 -15 23 -4 44 -11
48 -16 11 -19 56 -8 84 20 16 16 42 32 57 36 15 3 66 28 113 54 74 41 90 46
118 39 19 -5 32 -15 32 -24 0 -22 -30 -84 -41 -84 -5 0 -9 -7 -9 -15 0 -35 74
30 125 110 42 65 63 132 71 225 20 229 -142 436 -378 484 -93 19 -136 19 -208
0z m-10 -169 c41 -21 60 -53 60 -100 0 -46 -23 -75 -73 -94 -36 -14 -85 5
-116 45 -39 50 -14 120 54 150 38 17 40 17 75 -1z"/>
<path d="M5050 4860 c-13 -8 -12 -10 3 -10 9 0 17 5 17 10 0 12 -1 12 -20 0z"/>
<path d="M4988 4823 c6 -2 18 -2 25 0 6 3 1 5 -13 5 -14 0 -19 -2 -12 -5z"/>
<path d="M4920 4800 c0 -5 6 -10 14 -10 8 0 18 5 21 10 3 6 -3 10 -14 10 -12
0 -21 -4 -21 -10z"/>
<path d="M7398 5520 c-78 -14 -188 -73 -250 -134 -70 -69 -113 -154 -129 -258
-24 -147 33 -311 144 -414 81 -75 151 -107 215 -98 61 8 84 20 63 33 -12 7 -8
15 17 40 17 17 38 31 47 31 17 0 98 39 175 84 61 35 130 34 130 -1 0 -20 -41
-95 -60 -110 -13 -11 -13 -12 0 -12 23 -1 122 107 153 165 87 165 60 397 -61
526 -86 92 -193 142 -323 151 -41 3 -95 2 -121 -3z m-14 -202 c25 -27 28 -36
23 -77 -7 -59 -41 -91 -97 -91 -113 0 -140 142 -37 194 41 21 75 13 111 -26z"/>
<path d="M5596 3854 c-18 -46 10 -155 57 -227 41 -62 127 -120 230 -154 72
-23 98 -26 217 -27 117 0 144 3 200 23 110 40 169 90 217 186 24 47 34 88 35
143 1 70 -12 65 -52 -17 -49 -101 -100 -151 -194 -190 -160 -67 -331 -61 -479
16 -92 49 -142 100 -183 189 -18 41 -35 74 -38 74 -2 0 -7 -7 -10 -16z"/>
<path d="M4905 3223 c-48 -48 -36 -91 102 -370 26 -51 50 -93 55 -93 4 0 8 -5
8 -11 0 -37 225 -264 360 -364 118 -88 130 -93 210 -99 36 -2 124 -12 195 -21
72 -9 157 -19 190 -22 72 -6 245 16 375 48 19 4 49 11 65 14 17 4 44 13 62 21
17 8 36 14 42 14 6 0 11 5 11 10 0 6 5 10 10 10 14 0 68 38 97 68 12 12 25 22
28 22 6 0 22 17 94 99 38 43 48 49 72 44 23 -4 37 3 83 47 49 46 108 123 142
185 6 11 26 47 43 80 18 33 45 75 59 94 18 24 27 51 30 87 4 50 3 53 -20 59
-14 4 -119 2 -233 -4 -314 -16 -916 -14 -1045 3 -142 20 -340 43 -485 57 -66
6 -183 20 -260 30 -77 11 -167 19 -201 19 -53 0 -65 -3 -89 -27z m655 -133
c30 -5 114 -16 185 -25 72 -9 157 -21 190 -26 33 -5 182 -14 330 -20 246 -10
384 -25 330 -37 -11 -2 -33 -10 -50 -17 -46 -20 -363 -49 -448 -41 -39 3 -124
11 -187 16 -120 11 -170 19 -310 52 -156 36 -310 92 -310 112 0 9 183 0 270
-14z m278 -757 c20 -9 46 -20 57 -24 14 -5 8 -7 -21 -8 -44 -1 -114 23 -114
39 0 15 36 12 78 -7z m252 -23 c0 -5 -10 -10 -22 -9 -22 0 -22 1 -3 9 11 5 21
9 23 9 1 1 2 -3 2 -9z"/>
<path d="M6633 2140 c-73 -48 -166 -104 -206 -124 -77 -37 -187 -76 -216 -76
-9 0 -22 -5 -27 -10 -6 -6 -44 -14 -85 -19 l-74 -8 55 -4 c182 -10 328 35 500
156 74 52 196 162 189 170 -2 2 -64 -36 -136 -85z"/>
<path d="M5475 2068 c11 -6 26 -16 33 -22 7 -6 18 -15 25 -21 42 -34 199 -95
242 -94 20 1 23 3 10 6 -47 10 -220 89 -243 111 -7 6 -20 12 -28 12 -8 0 -14
5 -14 10 0 6 -10 10 -22 10 -22 -1 -22 -1 -3 -12z"/>
</g>
</svg>
